<svg xmlns="http://www.w3.org/2000/svg" viewBox="0 0 301.38 179.54"><defs><style>.cls-1{fill:#dbdcdc;}.cls-2,.cls-5,.cls-8{fill:none;}.cls-2,.cls-3{stroke:#231815;stroke-width:0.46px;}.cls-2,.cls-3,.cls-5,.cls-9{stroke-miterlimit:10;}.cls-3,.cls-6,.cls-7,.cls-9{fill:#fff;}.cls-4{fill:#009fe8;}.cls-5,.cls-8,.cls-9{stroke:#009fe8;stroke-width:0.91px;}.cls-7{opacity:0.25;}.cls-10{fill:#231815;}.cls-11{fill:#cf111b;}</style></defs><title>Asset 1</title><g id="Layer_2" data-name="Layer 2"><g id="文字"><polygon class="cls-1" points="76.87 113.62 67.11 113.57 74.44 104.15 83.95 104.17 76.87 113.62"/><polygon class="cls-1" points="110.48 113.62 100.72 113.57 108.05 104.15 117.56 104.17 110.48 113.62"/><path class="cls-2" d="M91.26,3.74S95,.46,99.51.46"/><polygon class="cls-3" points="53.18 88.83 26.81 88.83 53.04 54.2 79.41 54.2 53.18 88.83"/><polygon class="cls-3" points="88.63 88.83 62.26 88.83 88.49 54.2 114.85 54.2 88.63 88.83"/><polyline class="cls-2" points="164.82 0.46 129.88 46.58 94.35 46.58 101.52 37.12 84.49 37.12 77.32 46.58 58.81 46.58"/><path class="cls-2" d="M91.26,3.74S95,.46,99.51.46h65.31L165,.25"/><path class="cls-2" d="M84.49,37.12h17l-7.17,9.46h35.54L164.82.46H99.51c-4.54,0-8.25,3.28-8.25,3.28L58.81,46.58H77.32Z"/><polygon class="cls-3" points="269.43 45.16 260.31 45.16 289.06 7.21 298.18 7.21 269.43 45.16"/><polygon class="cls-3" points="238.53 85.96 229.41 85.96 258.15 48.01 267.27 48.01 238.53 85.96"/><polygon class="cls-3" points="199.26 132.55 172.37 132.55 185.07 115.78 211.96 115.78 199.26 132.55"/><path class="cls-3" d="M192.59,49.26c-1.89,2.5-6.55,4.53-10.41,4.53s-5.45-2-3.56-4.53,6.55-4.53,10.41-4.53S194.48,46.76,192.59,49.26Z"/><path class="cls-2" d="M144.4,63.63l.25-9.09s26.46-5.66,31.72,1.7C167.72,62.12,163,64.94,163,64.94S157.43,61.17,144.4,63.63Z"/><path class="cls-3" d="M163.88,69c-.1-.58,14.44-4.07,14.44-4.07s3.76,6.79-10.59,16.75c-7.36-2-11.13-3.06-11.13-3.06S165,75.58,163.88,69Z"/><path class="cls-3" d="M153.47,72.76c-1.89,2.5-6.56,4.53-10.41,4.53s-5.45-2-3.56-4.53,6.56-4.53,10.41-4.53S155.36,70.26,153.47,72.76Z"/><path class="cls-3" d="M167.51,135.1c.35-.41.69-.83,1-1.25,8.84-11.68.58-21.17-18.45-21.48L132.86,135.1Z"/><line class="cls-2" x1="126.67" y1="54.77" x2="110.46" y2="76.16"/><line class="cls-2" x1="136.11" y1="54.77" x2="119.91" y2="76.16"/><line class="cls-2" x1="125.89" y1="55.8" x2="135.33" y2="55.8"/><line class="cls-2" x1="125.06" y1="56.89" x2="134.51" y2="56.89"/><line class="cls-2" x1="124.23" y1="57.98" x2="133.68" y2="57.98"/><line class="cls-2" x1="123.41" y1="59.07" x2="132.85" y2="59.07"/><line class="cls-2" x1="122.58" y1="60.16" x2="132.03" y2="60.16"/><line class="cls-2" x1="121.75" y1="61.25" x2="131.2" y2="61.25"/><line class="cls-2" x1="120.93" y1="62.34" x2="130.37" y2="62.34"/><line class="cls-2" x1="120.1" y1="63.43" x2="129.55" y2="63.43"/><line class="cls-2" x1="119.28" y1="64.53" x2="128.72" y2="64.53"/><line class="cls-2" x1="118.45" y1="65.62" x2="127.9" y2="65.62"/><line class="cls-2" x1="117.62" y1="66.71" x2="127.07" y2="66.71"/><line class="cls-2" x1="116.8" y1="67.8" x2="126.24" y2="67.8"/><line class="cls-2" x1="115.97" y1="68.89" x2="125.42" y2="68.89"/><line class="cls-2" x1="115.15" y1="69.98" x2="124.59" y2="69.98"/><line class="cls-2" x1="114.32" y1="71.07" x2="123.77" y2="71.07"/><line class="cls-2" x1="113.49" y1="72.16" x2="122.94" y2="72.16"/><line class="cls-2" x1="112.67" y1="73.25" x2="122.11" y2="73.25"/><line class="cls-2" x1="111.84" y1="74.34" x2="121.29" y2="74.34"/><polyline class="cls-2" points="127.35 112.63 144.47 112.63 136.18 123.56"/><polyline class="cls-2" points="124.04 117 133.82 117 128.63 123.85"/><line class="cls-2" x1="129.45" y1="112.63" x2="126.14" y2="117"/><line class="cls-2" x1="131.37" y1="112.63" x2="128.06" y2="117"/><line class="cls-2" x1="133.29" y1="112.63" x2="129.98" y2="117"/><line class="cls-2" x1="135.21" y1="112.63" x2="131.9" y2="117"/><line class="cls-2" x1="133.52" y1="117.4" x2="140.85" y2="117.4"/><line class="cls-2" x1="132.36" y1="118.92" x2="139.7" y2="118.92"/><line class="cls-2" x1="131.21" y1="120.45" x2="138.54" y2="120.45"/><line class="cls-2" x1="130.05" y1="121.98" x2="137.38" y2="121.98"/><polygon class="cls-3" points="242.75 31.73 206.41 31.73 196.93 44.25 215.63 44.25 180.71 90.47 169.63 90.47 163.5 98.55 192.35 98.55 242.75 31.73"/><polygon class="cls-4" points="131.6 55.96 128.85 55.96 131.23 52.82 133.98 52.82 131.6 55.96"/><polygon class="cls-4" points="128.83 57.8 128.83 57.8 127.83 55.23 133.73 55.23 128.83 57.8"/><polygon class="cls-3" points="177.21 31.73 164.62 48.44 173.24 48.44 181.32 37.72 201.9 37.72 206.41 31.73 177.21 31.73"/><polygon class="cls-3" points="215.19 104.72 206.27 104.72 235.31 66.36 244.24 66.36 215.19 104.72"/><polygon class="cls-3" points="134.63 83.7 166.99 83.7 155.8 98.55 123.44 98.55 134.63 83.7"/><polygon class="cls-3" points="158.12 105.64 187.01 105.64 183.28 110.59 154.39 110.59 158.12 105.64"/><polygon class="cls-3" points="172.4 7.21 147.97 39.57 160.7 39.57 175.79 19.55 279.71 19.55 289.05 7.21 172.4 7.21"/><path class="cls-5" d="M123.08,135.1c-9.58,0-13.76-1.74-15.09-5.31-1.21-3.25.87-6,2.23-7.58,1.87-2.23,4.19-4.94,3.28-7-.78-1.74-3.87-1.74-6.23-1.74H27.51L6.93,115.08,91.26,3.74S95,.46,99.51.46H297.18s5.6.68,3.11,4L204,131.48s0,2.26-8.16,3.62Z"/><path class="cls-6" d="M65.25,111.63c-8.31,11-28.76,19.86-45.69,19.86S-4.35,122.59,4,111.63,32.72,91.77,49.64,91.77,73.56,100.66,65.25,111.63Z"/><path class="cls-7" d="M65.25,111.63c-8.31,11-28.76,19.86-45.69,19.86S-4.35,122.59,4,111.63,32.72,91.77,49.64,91.77,73.56,100.66,65.25,111.63Z"/><path class="cls-8" d="M65.25,111.63c-8.31,11-28.76,19.86-45.69,19.86S-4.35,122.59,4,111.63,32.72,91.77,49.64,91.77,73.56,100.66,65.25,111.63Z"/><path class="cls-9" d="M93.39,145.85C89.51,151,80,155.13,72,155.13s-11.18-4.16-7.29-9.28,13.44-9.28,21.35-9.28S97.28,140.73,93.39,145.85Z"/><path class="cls-6" d="M95.68,120.21A13.76,13.76,0,0,1,86,125H74.24c-3.33,0-4.4-2.17-2.4-4.82L80.35,109a13.76,13.76,0,0,1,9.7-4.82h11.74c3.33,0,4.4,2.17,2.4,4.82Z"/><line class="cls-6" x1="68.19" y1="125.03" x2="84" y2="104.16"/><line class="cls-2" x1="68.19" y1="125.03" x2="84" y2="104.16"/><line class="cls-6" x1="107.84" y1="104.16" x2="92.03" y2="125.03"/><line class="cls-2" x1="107.84" y1="104.16" x2="92.03" y2="125.03"/><polygon class="cls-3" points="279.71 19.55 251.95 19.55 261.24 7.21 289.06 7.21 279.71 19.55"/><path class="cls-10" d="M62.95,134.08v-.67h1.27V129l.71.05c.06,0,.21,0,.21.11s-.12.13-.21.16v4.08h1.52v-5.86H63.17v-.67h7.09v.67h-3.1v2.38h2.55v.69H67.17v2.78H70.5v.67Z"/><path class="cls-10" d="M72.31,133.88v.55h-.67v-5.88h2.43a11.9,11.9,0,0,0,.5-1.11h-3.4v-.6h7.59v.6H75.4c-.15.36-.35.77-.52,1.11h3.39v5.87h-.67v-.54Zm1.29-.62v-4.12H72.31v4.12Zm2.09-3.17v-.94H74.26v.94Zm0,1.57v-1H74.26v1Zm0,1.6v-1H74.26v1Zm1.92,0v-4.12H76.36v4.12Z"/><path class="cls-10" d="M83.42,128.29l.22.11c.07,0,.14.07.14.13s-.1.11-.3.12a17.65,17.65,0,0,1-1.61,2c.14.16.56.59.87,1A32.42,32.42,0,0,0,85,129l.56.43c.07.05.14.1.14.17a.1.1,0,0,1-.11.09l-.17,0a42.53,42.53,0,0,1-3.48,3.61c1.59-.12,1.79-.15,3.58-.36a8.9,8.9,0,0,0-1-1.42l.56-.4a12.83,12.83,0,0,1,1.85,3,2.62,2.62,0,0,0-.61.42,10.33,10.33,0,0,0-.45-1c-1.91.24-3.43.43-6,.64,0,.09-.07.21-.18.21s-.12-.11-.13-.17l-.14-.76,1.49-.1c.47-.39.92-.84,1.33-1.25a13.72,13.72,0,0,0-2.45-2.44l.54-.52a13.09,13.09,0,0,1,1.09,1,12,12,0,0,0,1.44-1.86H79.41v-.66h3.44v-1.16l.72,0c.12,0,.23,0,.23.13s-.09.12-.23.15v.86H87v.66Z"/><path class="cls-10" d="M88.71,129.3v5.14h-.65v-7.68h3v2.54Zm1.67-2H88.71v.49h1.67Zm0,.94H88.71v.53h1.67Zm1.44,3.93a3.52,3.52,0,0,0,1.56,1.4,3.38,3.38,0,0,0-.4.56,3.58,3.58,0,0,1-1.5-1.55,3.19,3.19,0,0,1-1.84,1.66,2.17,2.17,0,0,0-.4-.54A2.61,2.61,0,0,0,91,132.17H89.34v-.53h1.75c0-.13,0-.3,0-.68H89.55v-.55h.85a2.79,2.79,0,0,0-.46-.68l.56-.25a4.25,4.25,0,0,1,.5.81l-.36.12h1.22a6.38,6.38,0,0,0,.43-1l.58.23s.1,0,.1.1-.07.09-.21.1a5,5,0,0,1-.26.53h.87V131H91.71c0,.42,0,.56,0,.68h1.9v.53Zm1.7,2.27a2.31,2.31,0,0,0-.23-.75,2.12,2.12,0,0,0,.52.05c.35,0,.4-.05.4-.37V129.3H91.91v-2.54h3v6.73C94.87,134.34,94.48,134.45,93.52,134.44Zm.69-7.14H92.53v.49h1.68Zm0,.94H92.53v.53h1.68Z"/><path class="cls-10" d="M138.59,51.22V52h-4.84c.06-1.4.8-2,2-2.84,1.62-1.15,2-1.4,2-2.2s-.75-1.22-1.44-1.22c-1.52,0-1.59,1.4-1.62,1.88h-.83a2.37,2.37,0,0,1,2.46-2.63,2,2,0,0,1,2.25,2c0,.88-.36,1.46-1.71,2.35-1.52,1-1.81,1.35-2,1.92Z"/><path class="cls-10" d="M143.77,45.14v.75h-3.28V48.2h2.82V49h-2.82v3h-.82V45.14Z"/><path class="cls-10" d="M151.69,51.46a25.62,25.62,0,0,1-3.53-3.85c-.37-.47-.49-.57-.68-.57s-.4.18-.75.68a17.56,17.56,0,0,1-1.82,2.36l-.6-.62a13.8,13.8,0,0,0,2.29-2.68c.35-.47.63-.57.87-.57.52,0,.78.35,1.29,1a20,20,0,0,0,3.42,3.54C152,51.06,151.93,51.11,151.69,51.46Z"/><path class="cls-10" d="M92,112.42a9.53,9.53,0,0,1-3.35-1.16,8.46,8.46,0,0,1-3.38,1.17,2.43,2.43,0,0,0-.37-.7,7.7,7.7,0,0,0,3.13-.87,5.89,5.89,0,0,1-1.3-1.26l.52-.38a5.36,5.36,0,0,0,1.37,1.27A5.16,5.16,0,0,0,90,109.14h-3.7v-.63H90.7l.28.33a6.83,6.83,0,0,1-1.75,2,9.61,9.61,0,0,0,3.07.89A3,3,0,0,0,92,112.42Zm-.46-3.51v-1.19H85.72v1.19h-.67v-1.79h1.35a7.45,7.45,0,0,0-.69-1l.54-.34a6,6,0,0,1,.78,1.09l-.37.24h1.67a8.35,8.35,0,0,0-.74-1.12l.55-.35a10.61,10.61,0,0,1,.82,1.18,3.73,3.73,0,0,0-.44.29h1.1a9.74,9.74,0,0,0,.76-1.54l.62.26s.12.06.12.14-.12.1-.22.11c-.15.29-.4.79-.56,1H92.2v1.79Zm-.17-3.74a.53.53,0,0,1-.24-.09,18.71,18.71,0,0,1-5.44.52,2.94,2.94,0,0,0-.31-.72c.26,0,1,.09,1.82.09a11.36,11.36,0,0,0,3.72-.55l.49.54a.18.18,0,0,1,.06.11A.1.1,0,0,1,91.37,105.17Z"/><path class="cls-10" d="M94.94,112.42h-.7v-4.81a10,10,0,0,1-.83,1.14,2.1,2.1,0,0,0-.53-.54A10.61,10.61,0,0,0,95,104.35l.66.26c.1,0,.16.07.16.13s-.17.1-.23.1a13.06,13.06,0,0,1-.79,1.74c.22.07.31.09.31.18s-.14.14-.21.15Zm5.73-5.83v.69H99.6v4.1c0,1-.53,1-1.71,1a2.29,2.29,0,0,0-.29-.83,3.27,3.27,0,0,0,.72.09c.52,0,.58-.08.58-.43v-4H95.57v-.69H98.9v-2.18l.75,0c.17,0,.21.05.21.12s-.19.17-.26.17v1.84Zm-4,1.47a10.65,10.65,0,0,1,1.23,2.07,4.32,4.32,0,0,0-.65.38A9,9,0,0,0,96,108.4Z"/><polygon class="cls-10" points="266.11 147.41 265.95 145.53 253.67 145.53 253.51 147.41 248.03 147.41 248.03 160.26 271.59 160.26 271.59 147.41 266.11 147.41"/><path class="cls-6" d="M265.29,153.64a5.48,5.48,0,1,1-5.48-5.48,5.48,5.48,0,0,1,5.48,5.48"/><path class="cls-10" d="M263.77,153.64a4,4,0,1,1-4-4,4,4,0,0,1,4,4"/><rect class="cls-6" x="266.5" y="148.38" width="4.09" height="1.88"/><path class="cls-11" d="M272.74,140a18.28,18.28,0,1,0,5.35,12.93A18.16,18.16,0,0,0,272.74,140m-2.09,2.09a15.33,15.33,0,0,1,1,20.59l-21.58-21.58a15.33,15.33,0,0,1,20.59,1M249,163.73a15.33,15.33,0,0,1-1-20.59l21.58,21.58a15.33,15.33,0,0,1-20.59-1"/><path class="cls-10" d="M244.07,174.53V175h-3.42c-.11.33-.18.53-.3.85h3.47c0,.38-.07.72-.17,1.36h1.48v.48h-1.56c-.31,1.34-.61,1.77-1.69,1.77-.16,0-.21,0-.65,0l-.24-.59a4.49,4.49,0,0,0,.91.1c.71,0,.85-.24,1.11-1.23h-4.45v-.48h4.55a5.37,5.37,0,0,0,.11-.88h-3.06l-.25.56-.57-.18a13,13,0,0,0,1.13-2.92l.52.15c.07,0,.13.07.13.1s-.1.11-.24.18l-.08.32Zm.36-.9h-5.16v1h-.54v-1.44H245v1.44h-.52Z"/><path class="cls-10" d="M248.11,178.12l.36.29s.08.07.08.1-.15.07-.24.06a7.09,7.09,0,0,1-1.83.88l-.31-.46a4.16,4.16,0,0,0,1.8-.86h-2.19v-.46h6.49v.46Zm.67-5.21.59,0s.12,0,.12.07-.05.09-.18.15v.34h2.55V174h-2.55v.42h1.88v3H247v-3h1.82V174h-2.59v-.46h2.59Zm1.9,1.91h-3.2v.42h3.2Zm0,.82h-3.2v.42h3.2Zm0,.83h-3.2v.42h3.2Zm-.78,1.66a10.15,10.15,0,0,0,1.91.82l-.27.45a8.38,8.38,0,0,1-2-.88Z"/><path class="cls-10" d="M255.13,174.53V175h-.77v1.4l.73-.46v.57a8.18,8.18,0,0,1-.73.46v1.75c0,.74-.1.77-1.05.74l-.14-.56a2.91,2.91,0,0,0,.49.06c.15,0,.21-.07.21-.25v-1.44l-.5.29c0,.12,0,.21-.1.21s-.06,0-.11-.1l-.29-.52c.3-.13.43-.19,1-.48V175H253v-.48h.86v-1.65l.53.05c.09,0,.13,0,.13.07s-.08.1-.16.13v1.39Zm1.63,4.12c-.6.25-.75.32-1.3.53,0,.1,0,.23-.15.23s-.07,0-.09-.12l-.17-.51a2.4,2.4,0,0,0,.5-.12v-2.73h-.48v-.44h4.41v.44h-2.25v3.55h-.48Zm-1-5.62H259v2.07h-3.26Zm1,2.89H256v.6h.73Zm0,1H256v.6h.73Zm0,1H256v.61c.3-.1.45-.15.73-.26Zm1.77-4.43h-2.27v.41h2.27Zm0,.82h-2.27v.41h2.27ZM257.29,179a2.69,2.69,0,0,0,.79-.61,3.25,3.25,0,0,1-.53-1.44l.42-.14a2.34,2.34,0,0,0,.41,1.19,4.07,4.07,0,0,0,.5-1.27h-1.52v-.43h1.93l.12.15a4.69,4.69,0,0,1-.74,1.92,3.09,3.09,0,0,0,.94.68l-.31.43a2.78,2.78,0,0,1-.92-.73,4.14,4.14,0,0,1-.71.65Z"/><path class="cls-10" d="M260.14,175.93v-.44h1.69v-.4h-1.31V173h3.15v2.09h-1.31v.4H264v.44Zm.05,2.91a4,4,0,0,0,.88-1l.39.32s.06.06.06.09-.06.05-.18,0a4.18,4.18,0,0,1-.81,1Zm2.15.07c0,.59-.16.6-1,.58l-.12-.49h.32c.21,0,.26-.08.26-.26v-1.08h-1.16v-1.34h2.82v1.34h-1.16ZM261,173.82h2.19v-.41H261Zm0,.84h2.19v-.46H261Zm2,2.08h-1.82v.53H263Zm-.13,1.14a3.33,3.33,0,0,1,.88.8l-.32.38a3.7,3.7,0,0,0-.88-.89Zm.74,1.15a4.94,4.94,0,0,0,2.6-2.18l.41.39s.07.07.07.11-.11.07-.24.07a6.56,6.56,0,0,1-2.43,2.1Zm.28-4.54a4.38,4.38,0,0,0,1.86-1.73l.49.41s.07.06.07.1-.06.05-.09.05h-.15a6.22,6.22,0,0,1-1.72,1.57Zm.27,2.07a5.31,5.31,0,0,0,2-1.92l.38.34c.11.1.12.11.12.15s-.07.07-.19.07a7.33,7.33,0,0,1-1.86,1.76Z"/><path class="cls-10" d="M269.34,174.11a3,3,0,0,0,1,.73l-.35.36a2.93,2.93,0,0,1-.75-.65v1.55h-.46v-1.61a7.59,7.59,0,0,1-1.21,1.22l-.35-.38a4.34,4.34,0,0,0,1.29-1.22h-1.1v-.44h1.36v-.83l.51,0c.05,0,.12,0,.12.07s-.11.13-.18.16v.57h1.12v.44Zm1.55,3.65v1.16c0,.45,0,.57-1.11.57l-.19-.53.49,0c.28,0,.28-.1.28-.27v-1h-3v-.44h6.57v.44Zm-1.3.71a.41.41,0,0,1-.15,0,7,7,0,0,1-1.5.77l-.37-.43a5.72,5.72,0,0,0,1.77-.82l.28.35a.19.19,0,0,1,.05.11c0,.05,0,.07-.08.07m-1.52-2.1H273v.46h-4.89Zm5.56-.63a6.15,6.15,0,0,1-1.36-1.23v1.6h-.48v-1.6a6.92,6.92,0,0,1-1.27,1.3l-.38-.32a6.83,6.83,0,0,0,1.44-1.38h-.86v-.44h1.08v-.83l.51,0s.13,0,.13.07-.07.1-.17.15v.58h1.52v.44h-1.3a5.63,5.63,0,0,0,1.49,1.28Zm-.65,3.51a6.79,6.79,0,0,0-1.67-.91l.29-.35a7.63,7.63,0,0,1,1.75.82Z"/><path class="cls-10" d="M275.67,174.61l.55.05c.05,0,.21,0,.21.1s0,.1-.19.16v3.62h1.46v-5.66l.63.06c.07,0,.18,0,.18.08s-.07.1-.26.15v2.16h2.14v.54h-2.14v2.67h2.84v.52h-6.62v-.52h1.21Z"/></g></g></svg>