<svg xmlns="http://www.w3.org/2000/svg" viewBox="0 0 301.38 179.67"><defs><style>.cls-1,.cls-7,.cls-8{fill:#fff;}.cls-1,.cls-2,.cls-5{stroke:#231815;stroke-width:0.46px;}.cls-1,.cls-2,.cls-5,.cls-6,.cls-7{stroke-miterlimit:10;}.cls-2,.cls-6{fill:none;}.cls-3{fill:#009fe8;}.cls-4{fill:#231815;}.cls-5{fill:#d7bfd4;}.cls-6,.cls-7{stroke:#009fe8;stroke-width:0.91px;}.cls-9{fill:#cf111b;}</style></defs><title>Asset 2</title><g id="Layer_2" data-name="Layer 2"><g id="文字"><polygon class="cls-1" points="53.18 88.82 26.81 88.82 53.04 54.2 79.41 54.2 53.18 88.82"/><polygon class="cls-1" points="88.63 88.82 62.26 88.82 88.49 54.2 114.85 54.2 88.63 88.82"/><polyline class="cls-1" points="165.18 0.58 130.24 46.71 94.7 46.71 101.87 37.24 84.85 37.24 77.68 46.71 59.17 46.71"/><path class="cls-2" d="M91.62,3.86S95.33.58,99.87.58h65.31l.16-.21"/><path class="cls-1" d="M84.85,37.24h17L94.7,46.71h35.54L165.17.58H99.87c-4.54,0-8.25,3.28-8.25,3.28L59.17,46.71H77.68Z"/><line class="cls-2" x1="116.31" y1="63.8" x2="101.19" y2="83.77"/><line class="cls-2" x1="125.13" y1="63.8" x2="110" y2="83.77"/><line class="cls-2" x1="115.58" y1="64.76" x2="124.4" y2="64.76"/><line class="cls-2" x1="114.81" y1="65.78" x2="123.63" y2="65.78"/><line class="cls-2" x1="114.04" y1="66.8" x2="122.86" y2="66.8"/><line class="cls-2" x1="113.27" y1="67.82" x2="122.09" y2="67.82"/><line class="cls-2" x1="112.5" y1="68.84" x2="121.32" y2="68.84"/><line class="cls-2" x1="111.73" y1="69.86" x2="120.54" y2="69.86"/><line class="cls-2" x1="110.96" y1="70.87" x2="119.77" y2="70.87"/><line class="cls-2" x1="110.18" y1="71.89" x2="119" y2="71.89"/><line class="cls-2" x1="109.41" y1="72.91" x2="118.23" y2="72.91"/><line class="cls-2" x1="108.64" y1="73.93" x2="117.46" y2="73.93"/><line class="cls-2" x1="107.87" y1="74.95" x2="116.69" y2="74.95"/><line class="cls-2" x1="107.1" y1="75.97" x2="115.92" y2="75.97"/><line class="cls-2" x1="106.33" y1="76.98" x2="115.15" y2="76.98"/><line class="cls-2" x1="105.56" y1="78" x2="114.37" y2="78"/><line class="cls-2" x1="104.78" y1="79.02" x2="113.6" y2="79.02"/><line class="cls-2" x1="104.01" y1="80.04" x2="112.83" y2="80.04"/><line class="cls-2" x1="103.24" y1="81.06" x2="112.06" y2="81.06"/><line class="cls-2" x1="102.47" y1="82.08" x2="111.29" y2="82.08"/><polygon class="cls-1" points="216.34 4.85 168.91 4.85 137.21 46.71 184.65 46.71 216.34 4.85"/><polygon class="cls-1" points="139.21 99.68 101.27 99.68 127.72 64.76 165.66 64.76 139.21 99.68"/><path class="cls-1" d="M156.29,113.43,147,125.75s-2,6.66,9.84,6.66h27.67S198.63,130.33,203,125s8.73-11.53,8.73-11.53Z"/><polygon class="cls-2" points="118.55 115.18 141 115.18 127.86 132.52 136 132.52 150.63 113.22 120.03 113.22 118.55 115.18"/><line class="cls-2" x1="136.83" y1="120.67" x2="144.98" y2="120.67"/><line class="cls-2" x1="135.57" y1="122.34" x2="143.72" y2="122.34"/><line class="cls-2" x1="134.3" y1="124.01" x2="142.45" y2="124.01"/><line class="cls-2" x1="133.04" y1="125.68" x2="141.19" y2="125.68"/><line class="cls-2" x1="131.77" y1="127.35" x2="139.92" y2="127.35"/><path class="cls-2" d="M127.64,132.52s-20.6-2.66-11.7-13.9h8.76c-5,7.29,7.65,8,7.65,8"/><line class="cls-2" x1="114.56" y1="120.72" x2="124.25" y2="119.34"/><line class="cls-2" x1="113.74" y1="123.28" x2="123.67" y2="120.72"/><line class="cls-2" x1="113.92" y1="125.28" x2="123.62" y2="122.44"/><line class="cls-2" x1="114.88" y1="127.06" x2="124.2" y2="123.61"/><line class="cls-2" x1="116.54" y1="128.62" x2="125.18" y2="124.54"/><line class="cls-2" x1="118.43" y1="129.78" x2="126.63" y2="125.33"/><line class="cls-2" x1="121.4" y1="131.03" x2="128.04" y2="125.84"/><line class="cls-2" x1="124.13" y1="131.83" x2="130.16" y2="126.33"/><polygon class="cls-3" points="121.39 64.32 118.64 64.32 121.02 61.17 123.77 61.17 121.39 64.32"/><polygon class="cls-3" points="118.62 66.15 118.62 66.15 117.61 63.58 123.52 63.58 118.62 66.15"/><path class="cls-4" d="M119.42,57.76c0,.53.14,1.68,1.55,1.68,1.2,0,1.62-.7,1.62-1.4a1.29,1.29,0,0,0-1.43-1.33h-.64V56h.56c.91,0,1.39-.49,1.39-1.17s-.58-1.14-1.38-1.14a1.39,1.39,0,0,0-1.51,1.47h-.84A2.22,2.22,0,0,1,121.13,53c1.25,0,2.15.7,2.15,1.8a1.48,1.48,0,0,1-1.16,1.53A1.63,1.63,0,0,1,123.4,58,2.1,2.1,0,0,1,121,60.2c-.77,0-2.32-.12-2.46-2.44Z"/><path class="cls-4" d="M128.59,53.18v.75h-3.28v2.32h2.82V57h-2.82v3h-.82V53.18Z"/><path class="cls-4" d="M136.51,59.5A25.62,25.62,0,0,1,133,55.66c-.37-.47-.49-.57-.68-.57s-.4.18-.75.68a17.5,17.5,0,0,1-1.82,2.36l-.6-.62a13.83,13.83,0,0,0,2.29-2.68c.35-.47.63-.57.87-.57.52,0,.78.35,1.29,1A20,20,0,0,0,137,58.81C136.79,59.1,136.75,59.15,136.51,59.5Z"/><polygon class="cls-2" points="257.68 30.73 275.62 30.73 287.4 15.21 269.46 15.21 257.68 30.73"/><polygon class="cls-2" points="245.39 46.71 263.33 46.71 275.46 30.73 257.51 30.73 245.39 46.71"/><polygon class="cls-2" points="203.76 30.73 221.71 30.73 233.49 15.21 215.54 15.21 203.76 30.73"/><polygon class="cls-2" points="191.63 46.71 209.58 46.71 221.71 30.73 203.76 30.73 191.63 46.71"/><polygon class="cls-2" points="251.51 15.21 269.46 15.21 277.35 4.85 259.41 4.85 251.51 15.21"/><polygon class="cls-2" points="233.57 15.21 251.51 15.21 259.41 4.85 241.46 4.85 233.57 15.21"/><polygon class="cls-5" points="233.95 61.77 251.9 61.77 263.33 46.71 245.39 46.71 233.95 61.77"/><polygon class="cls-1" points="233.95 61.77 251.9 61.77 287.4 15.21 269.46 15.21 233.95 61.77"/><polygon class="cls-1" points="191.63 46.71 209.58 46.71 233.49 15.21 215.54 15.21 191.63 46.71"/><polygon class="cls-1" points="233.57 15.21 269.46 15.21 277.35 4.85 241.46 4.85 233.57 15.21"/><polygon class="cls-1" points="69.97 110.36 112.36 110.36 118.28 102.6 75.88 102.6 69.97 110.36"/><path class="cls-6" d="M123.08,135.1c-9.66,0-14-1.74-15.69-5.31-1.51-3.25.34-6,1.57-7.58,1.69-2.23,3-4.65,1.92-6.7-.94-1.74-3.3-2-5.68-2H27.51L6.93,115.07,91.26,3.74S95,.46,99.51.46H297.18s5.6.68,3.11,4L204,131.48s0,2.26-8.16,3.62H123.08Z"/><path class="cls-7" d="M65.25,111.62c-8.31,11-28.76,19.86-45.69,19.86S-4.35,122.59,4,111.62,32.72,91.77,49.64,91.77,73.55,100.66,65.25,111.62Z"/><polygon class="cls-4" points="266.11 147.54 265.95 145.66 253.67 145.66 253.51 147.54 248.03 147.54 248.03 160.38 271.59 160.38 271.59 147.54 266.11 147.54"/><path class="cls-8" d="M265.29,153.77a5.48,5.48,0,1,1-5.48-5.48,5.48,5.48,0,0,1,5.48,5.48"/><path class="cls-4" d="M263.77,153.77a4,4,0,1,1-4-4,4,4,0,0,1,4,4"/><rect class="cls-8" x="266.5" y="148.5" width="4.09" height="1.88"/><path class="cls-9" d="M272.74,140.09A18.28,18.28,0,1,0,278.09,153a18.16,18.16,0,0,0-5.35-12.93m-2.09,2.09a15.33,15.33,0,0,1,1,20.59l-21.58-21.58a15.33,15.33,0,0,1,20.59,1M249,163.86a15.33,15.33,0,0,1-1-20.59l21.58,21.58a15.33,15.33,0,0,1-20.59-1"/><path class="cls-4" d="M244.07,174.66v.46h-3.42c-.11.33-.18.53-.3.85h3.47c0,.38-.07.72-.17,1.36h1.48v.48h-1.56c-.31,1.34-.61,1.77-1.69,1.77-.16,0-.21,0-.65,0l-.24-.59a4.49,4.49,0,0,0,.91.1c.71,0,.85-.24,1.11-1.23h-4.45v-.48h4.55a5.37,5.37,0,0,0,.11-.88h-3.06l-.25.56-.57-.18a13,13,0,0,0,1.13-2.92l.52.15c.07,0,.13.07.13.1s-.1.11-.24.18l-.08.32Zm.36-.9h-5.16v1h-.54v-1.44H245v1.44h-.52Z"/><path class="cls-4" d="M248.11,178.24l.36.29s.08.07.08.1-.15.07-.24.06a7.09,7.09,0,0,1-1.83.88l-.31-.46a4.16,4.16,0,0,0,1.8-.86h-2.19v-.46h6.49v.46Zm.67-5.21.59,0s.12,0,.12.07-.05.09-.18.15v.34h2.55v.46h-2.55v.42h1.88v3H247v-3h1.82v-.42h-2.59v-.46h2.59Zm1.9,1.91h-3.2v.42h3.2Zm0,.82h-3.2v.42h3.2Zm0,.83h-3.2V177h3.2Zm-.78,1.66a10.15,10.15,0,0,0,1.91.82l-.27.45a8.38,8.38,0,0,1-2-.88Z"/><path class="cls-4" d="M255.13,174.66v.48h-.77v1.4l.73-.46v.57a8.18,8.18,0,0,1-.73.46v1.75c0,.74-.1.77-1.05.74l-.14-.56a2.91,2.91,0,0,0,.49.06c.15,0,.21-.07.21-.25v-1.44l-.5.29c0,.12,0,.21-.1.21s-.06,0-.11-.1l-.29-.52c.3-.13.43-.19,1-.48v-1.69H253v-.48h.86V173l.53.05c.09,0,.13,0,.13.07s-.08.1-.16.13v1.39Zm1.63,4.12c-.6.25-.75.32-1.3.53,0,.1,0,.23-.15.23s-.07,0-.09-.12l-.17-.51a2.4,2.4,0,0,0,.5-.12v-2.73h-.48v-.44h4.41v.44h-2.25v3.55h-.48Zm-1-5.62H259v2.07h-3.26Zm1,2.89H256v.6h.73Zm0,1H256v.6h.73Zm0,1H256v.61c.3-.1.45-.15.73-.26Zm1.77-4.43h-2.27V174h2.27Zm0,.82h-2.27v.41h2.27Zm-1.23,4.76a2.69,2.69,0,0,0,.79-.61,3.25,3.25,0,0,1-.53-1.44L258,177a2.34,2.34,0,0,0,.41,1.19,4.07,4.07,0,0,0,.5-1.27h-1.52v-.43h1.93l.12.15a4.69,4.69,0,0,1-.74,1.92,3.09,3.09,0,0,0,.94.68l-.31.43a2.78,2.78,0,0,1-.92-.73,4.14,4.14,0,0,1-.71.65Z"/><path class="cls-4" d="M260.14,176.06v-.44h1.69v-.4h-1.31v-2.09h3.15v2.09h-1.31v.4H264v.44Zm.05,2.91a4,4,0,0,0,.88-1l.39.32s.06.06.06.09-.06.05-.18,0a4.18,4.18,0,0,1-.81,1Zm2.15.07c0,.59-.16.6-1,.58l-.12-.49h.32c.21,0,.26-.08.26-.26V177.8h-1.16v-1.34h2.82v1.34h-1.16ZM261,174h2.19v-.41H261Zm0,.84h2.19v-.46H261Zm2,2.08h-1.82v.53H263Zm-.13,1.14a3.33,3.33,0,0,1,.88.8l-.32.38a3.7,3.7,0,0,0-.88-.89Zm.74,1.15a4.94,4.94,0,0,0,2.6-2.18l.41.39s.07.07.07.11-.11.07-.24.07a6.56,6.56,0,0,1-2.43,2.1Zm.28-4.54a4.38,4.38,0,0,0,1.86-1.73l.49.41s.07.06.07.1-.06.05-.09.05h-.15a6.22,6.22,0,0,1-1.72,1.57Zm.27,2.07a5.31,5.31,0,0,0,2-1.92l.38.34c.11.1.12.11.12.15s-.07.07-.19.07a7.33,7.33,0,0,1-1.86,1.76Z"/><path class="cls-4" d="M269.34,174.24a3,3,0,0,0,1,.73l-.35.36a2.93,2.93,0,0,1-.75-.65v1.55h-.46v-1.61a7.59,7.59,0,0,1-1.21,1.22l-.35-.38a4.34,4.34,0,0,0,1.29-1.22h-1.1v-.44h1.36V173l.51,0c.05,0,.12,0,.12.07s-.11.13-.18.16v.57h1.12v.44Zm1.55,3.65V179c0,.45,0,.57-1.11.57l-.19-.53.49,0c.28,0,.28-.1.28-.27v-1h-3v-.44h6.57v.44Zm-1.3.71a.41.41,0,0,1-.15,0,7,7,0,0,1-1.5.77l-.37-.43a5.72,5.72,0,0,0,1.77-.82l.28.35a.19.19,0,0,1,.05.11c0,.05,0,.07-.08.07m-1.52-2.1H273V177h-4.89Zm5.56-.63a6.15,6.15,0,0,1-1.36-1.23v1.6h-.48v-1.6a6.92,6.92,0,0,1-1.27,1.3l-.38-.32a6.83,6.83,0,0,0,1.44-1.38h-.86v-.44h1.08V173l.51,0s.13,0,.13.07-.07.1-.17.15v.58h1.52v.44h-1.3a5.63,5.63,0,0,0,1.49,1.28Zm-.65,3.51a6.79,6.79,0,0,0-1.67-.91l.29-.35a7.63,7.63,0,0,1,1.75.82Z"/><path class="cls-4" d="M275.67,174.73l.55.05c.05,0,.21,0,.21.1s0,.1-.19.16v3.62h1.46V173l.63.06c.07,0,.18,0,.18.08s-.07.1-.26.15v2.16h2.14V176h-2.14v2.67h2.84v.52h-6.62v-.52h1.21Z"/></g></g></svg>