<svg xmlns="http://www.w3.org/2000/svg" viewBox="0 0 301.38 179.54"><defs><style>.cls-1,.cls-7{fill:#fff;}.cls-1,.cls-2,.cls-3{stroke:#231815;stroke-width:0.46px;}.cls-1,.cls-2,.cls-3,.cls-4,.cls-5{stroke-miterlimit:10;}.cls-2,.cls-4{fill:none;}.cls-3{fill:#9e9e9f;}.cls-4,.cls-5{stroke:#009fe8;stroke-width:0.91px;}.cls-5{fill:#dbdcdc;}.cls-6{fill:#231815;}.cls-8{fill:#cf111b;}</style></defs><title>Asset 3</title><g id="Layer_2" data-name="Layer 2"><g id="文字"><path class="cls-1" d="M203.82,131.47l15.35-20.21h-69.4l-18.09,23.83h64C203.85,133.74,203.82,131.47,203.82,131.47Z"/><polygon class="cls-1" points="255.38 63.49 185.85 63.49 215.7 24.25 285.23 24.25 255.38 63.49"/><polygon class="cls-1" points="53.22 88.82 26.88 88.82 54.34 52.64 80.69 52.64 53.22 88.82"/><line class="cls-2" x1="77.44" y1="46.58" x2="58.95" y2="46.58"/><line class="cls-2" x1="97.43" y1="46.58" x2="94.45" y2="46.58"/><path class="cls-2" d="M132.45.46"/><path class="cls-2" d="M91.48,3.74S95.19.46,99.73.46h32.72l.16-.21"/><path class="cls-2" d="M160.46,46.58l35-46.12H99.73c-4.54,0-8.25,3.28-8.25,3.28L59,46.58Z"/><line class="cls-2" x1="111.53" y1="70.73" x2="96.52" y2="90.5"/><line class="cls-2" x1="120.25" y1="70.73" x2="105.24" y2="90.5"/><line class="cls-2" x1="110.81" y1="71.68" x2="119.53" y2="71.68"/><line class="cls-2" x1="110.05" y1="72.69" x2="118.77" y2="72.69"/><line class="cls-2" x1="109.28" y1="73.7" x2="118" y2="73.7"/><line class="cls-2" x1="108.51" y1="74.7" x2="117.23" y2="74.7"/><line class="cls-2" x1="107.75" y1="75.71" x2="116.47" y2="75.71"/><line class="cls-2" x1="106.98" y1="76.72" x2="115.7" y2="76.72"/><line class="cls-2" x1="106.22" y1="77.73" x2="114.94" y2="77.73"/><line class="cls-2" x1="105.45" y1="78.74" x2="114.17" y2="78.74"/><line class="cls-2" x1="104.69" y1="79.74" x2="113.41" y2="79.74"/><line class="cls-2" x1="103.92" y1="80.75" x2="112.64" y2="80.75"/><line class="cls-2" x1="103.16" y1="81.76" x2="111.88" y2="81.76"/><line class="cls-2" x1="102.39" y1="82.77" x2="111.11" y2="82.77"/><line class="cls-2" x1="101.63" y1="83.78" x2="110.35" y2="83.78"/><line class="cls-2" x1="100.86" y1="84.78" x2="109.58" y2="84.78"/><line class="cls-2" x1="100.1" y1="85.79" x2="108.82" y2="85.79"/><line class="cls-2" x1="99.33" y1="86.8" x2="108.05" y2="86.8"/><line class="cls-2" x1="98.56" y1="87.81" x2="107.29" y2="87.81"/><line class="cls-2" x1="97.8" y1="88.82" x2="106.52" y2="88.82"/><polygon class="cls-1" points="142.3 101.29 100 101.29 136.93 52.64 179.24 52.64 142.3 101.29"/><polygon class="cls-2" points="117.72 113.22 140.14 113.22 126.97 130.57 135.11 130.57 149.76 111.26 119.2 111.26 117.72 113.22"/><line class="cls-2" x1="135.97" y1="118.72" x2="144.11" y2="118.72"/><line class="cls-2" x1="134.7" y1="120.39" x2="142.84" y2="120.39"/><line class="cls-2" x1="133.43" y1="122.06" x2="141.57" y2="122.06"/><line class="cls-2" x1="132.16" y1="123.72" x2="140.3" y2="123.72"/><line class="cls-2" x1="130.9" y1="125.39" x2="139.03" y2="125.39"/><path class="cls-2" d="M126.75,130.57s-20.57-2.66-11.65-13.9h8.75c-5,7.29,7.62,8,7.62,8"/><line class="cls-2" x1="113.71" y1="118.76" x2="123.4" y2="117.39"/><line class="cls-2" x1="112.89" y1="121.32" x2="122.82" y2="118.76"/><line class="cls-2" x1="113.07" y1="123.32" x2="122.77" y2="120.48"/><line class="cls-2" x1="114.02" y1="125.1" x2="123.33" y2="121.65"/><line class="cls-2" x1="115.67" y1="126.67" x2="124.31" y2="122.58"/><line class="cls-2" x1="117.56" y1="127.82" x2="125.76" y2="123.38"/><line class="cls-2" x1="120.52" y1="129.07" x2="127.16" y2="123.88"/><line class="cls-2" x1="123.24" y1="129.87" x2="129.29" y2="124.37"/><polygon class="cls-1" points="177.46 24.25 200.8 24.25 183.8 46.62 160.46 46.62 177.46 24.25"/><polygon class="cls-1" points="195.47 0.46 218.85 0.46 209.82 12.35 186.44 12.35 195.47 0.46"/><polygon class="cls-1" points="186.44 12.35 209.82 12.35 200.79 24.25 177.41 24.25 186.44 12.35"/><line class="cls-2" x1="255.38" y1="63.49" x2="185.85" y2="63.49"/><line class="cls-2" x1="285.23" y1="24.24" x2="215.7" y2="24.24"/><path class="cls-1" d="M215.7,24.24h69.52L300.29,4.42c2.49-3.28-3.1-4-3.1-4H233.76Z"/><polygon class="cls-1" points="89.76 52.64 116.1 52.64 88.63 88.82 62.29 88.82 89.76 52.64"/><polygon class="cls-3" points="108.05 107.88 71.37 107.88 67.05 113.57 103.73 113.57 108.05 107.88"/><polygon class="cls-1" points="174.74 78.19 244.28 78.19 233.12 92.89 163.58 92.89 174.74 78.19"/><polygon class="cls-1" points="163.58 92.89 197.72 92.89 188.59 104.92 154.45 104.92 163.58 92.89"/><polygon class="cls-1" points="177.5 63.49 185.9 63.49 163.58 92.89 155.18 92.89 177.5 63.49"/><polygon class="cls-1" points="191.97 63.49 191.97 63.49 185.9 63.49 174.79 78.19 244.28 78.19 255.38 63.49 191.97 63.49"/><polygon class="cls-1" points="239.57 63.49 255.43 63.49 233.11 92.89 217.25 92.89 239.57 63.49"/><path class="cls-4" d="M111.59,115.22c1.1,2-1,4.75-2.65,7-1.22,1.62-3.06,4.33-1.56,7.58,1.65,3.57,6,5.31,15.55,5.31h72.74c8.18-1.36,8.16-3.62,8.16-3.62L300.29,4.42c2.49-3.28-3.1-4-3.1-4H99.73c-4.54,0-8.25,3.28-8.25,3.28L6.95,115.07l20.57-1.58h77.69C107.56,113.48,110.65,113.48,111.59,115.22Z"/><path class="cls-5" d="M65.22,111.62c-8.33,11-28.79,19.86-45.71,19.86S-4.35,122.58,4,111.62,32.77,91.76,49.68,91.76,73.55,100.65,65.22,111.62Z"/><path class="cls-6" d="M73,116.31a1.24,1.24,0,0,0,.4-.07l.53.48a3.11,3.11,0,0,0-.26.35,11,11,0,0,1-2.18,2.35,2.64,2.64,0,0,0-.55-.55A5.93,5.93,0,0,0,72.82,117H67.62v-.72ZM71,117.6s.14,0,.14.07-.09.12-.14.14a4.61,4.61,0,0,1-2.28,4.27,4.28,4.28,0,0,0-.66-.51c1.55-.83,2.22-1.84,2.12-4Z"/><path class="cls-6" d="M75.26,115.88a8.92,8.92,0,0,1,2,1.33,5.31,5.31,0,0,0-.47.66,7.67,7.67,0,0,0-2-1.34Zm-.4,5.23a8.6,8.6,0,0,0,5.54-4,4.3,4.3,0,0,0,.49.67,9.89,9.89,0,0,1-5.34,4c0,.08,0,.16-.1.16a.15.15,0,0,1-.12-.09Z"/><path class="cls-6" d="M83.39,118a9.89,9.89,0,0,1-1.33,1.68,3.93,3.93,0,0,0-.66-.47,8.57,8.57,0,0,0,2.3-3.76l.79.3s.12,0,.12.1-.15.1-.22.12a13.09,13.09,0,0,1-.59,1.3h3.92V118H85.85a4.7,4.7,0,0,1-2.43,4.22,3.79,3.79,0,0,0-.61-.53A4,4,0,0,0,85.06,118Z"/><path class="cls-6" d="M94.93,118.51v.79H88.7v-.79Z"/><path class="cls-6" d="M97.57,117.63a11.5,11.5,0,0,1,2.74,1.82,5.93,5.93,0,0,0-.46.65,10.54,10.54,0,0,0-2.6-1.79v3.74h-.79v-6.35l.8.05c.09,0,.13,0,.13.09s-.09.09-.14.11v2.12Z"/><path class="cls-6" d="M70.3,129.37v-.74h4.46v-3H70.3v-.74h5.26v4.81h-.8v-.3Z"/><path class="cls-6" d="M83.1,126.72v.79H76.87v-.79Z"/><path class="cls-6" d="M87.09,123.91l.8,0c.07,0,.15,0,.15.09s-.11.12-.15.14v1.45h2.44v.71H87.89a4.22,4.22,0,0,1-2.6,4,2.41,2.41,0,0,0-.59-.59,3.41,3.41,0,0,0,2.39-3.44h-3v-.71h3Z"/><path class="cls-6" d="M97.56,126.72v.79H91.33v-.79Z"/><path class="cls-6" d="M28.77,102.06a11.51,11.51,0,0,1,2.74,1.82,5.93,5.93,0,0,0-.46.65,10.52,10.52,0,0,0-2.6-1.79v3.74h-.79v-6.35l.8.05c.09,0,.13,0,.13.09s-.09.1-.14.11v2.12Zm1.92-1.12a5.43,5.43,0,0,1,.78.7A5.6,5.6,0,0,0,31,102a4.12,4.12,0,0,0-.76-.75Zm.64-.53a6.51,6.51,0,0,1,.76.71,3.46,3.46,0,0,0-.38.35,4.94,4.94,0,0,0-.78-.72Z"/><path class="cls-6" d="M33.71,100.32c.09,0,.15,0,.15.07s-.1.12-.15.13V104h-.79v-3.76Zm3.44-.13c.12,0,.15,0,.15.07s-.1.12-.15.15v2.33a4,4,0,0,1-.57,2.23,4.33,4.33,0,0,1-2.31,1.65,1.54,1.54,0,0,0-.5-.62c2.59-.76,2.59-2.48,2.59-3.25v-2.61Z"/><path class="cls-6" d="M38.94,100.31a8.88,8.88,0,0,1,2,1.33,5.31,5.31,0,0,0-.47.66,7.66,7.66,0,0,0-2-1.33Zm-.4,5.23a8.6,8.6,0,0,0,5.54-4,4.36,4.36,0,0,0,.49.67,9.9,9.9,0,0,1-5.34,4c0,.08,0,.16-.1.16a.15.15,0,0,1-.12-.09Z"/><path class="cls-6" d="M49.93,101.2a1.18,1.18,0,0,0,.5-.11l.42.39a2.64,2.64,0,0,0-.23.44,9.66,9.66,0,0,1-2,3.33,6.35,6.35,0,0,1-2.17,1.46,3,3,0,0,0-.6-.56,6.3,6.3,0,0,0,3.87-4.25H47.46a9.79,9.79,0,0,1-1.81,2,4,4,0,0,0-.58-.53,7.86,7.86,0,0,0,2.5-3.35l.71.32s.1,0,.1.11-.11.09-.17.09c-.07.15-.12.24-.32.62Z"/><path class="cls-6" d="M25.39,113.79v-.74h4.46v-3H25.39v-.74h5.26v4.81h-.8v-.3Z"/><path class="cls-6" d="M38.19,111.15v.79H32v-.79Z"/><path class="cls-6" d="M42.18,108.34l.8,0c.07,0,.15,0,.15.09s-.11.12-.15.14V110h2.44v.71H43a4.22,4.22,0,0,1-2.6,4,2.4,2.4,0,0,0-.59-.59,3.41,3.41,0,0,0,2.39-3.44h-3V110h3Z"/><path class="cls-6" d="M52.65,111.15v.79H46.41v-.79Z"/><polygon class="cls-6" points="266.11 147.41 265.95 145.53 253.67 145.53 253.51 147.41 248.03 147.41 248.03 160.26 271.59 160.26 271.59 147.41 266.11 147.41"/><path class="cls-7" d="M265.29,153.64a5.48,5.48,0,1,1-5.48-5.48,5.48,5.48,0,0,1,5.48,5.48"/><path class="cls-6" d="M263.77,153.64a4,4,0,1,1-4-4,4,4,0,0,1,4,4"/><rect class="cls-7" x="266.5" y="148.38" width="4.09" height="1.88"/><path class="cls-8" d="M272.74,140a18.28,18.28,0,1,0,5.35,12.93A18.16,18.16,0,0,0,272.74,140m-2.09,2.09a15.33,15.33,0,0,1,1,20.59l-21.58-21.58a15.33,15.33,0,0,1,20.59,1M249,163.73a15.33,15.33,0,0,1-1-20.59l21.58,21.58a15.33,15.33,0,0,1-20.59-1"/><path class="cls-6" d="M244.07,174.53V175h-3.42c-.11.33-.18.53-.3.85h3.47c0,.38-.07.72-.17,1.36h1.48v.48h-1.56c-.31,1.34-.61,1.77-1.69,1.77-.16,0-.21,0-.65,0l-.24-.59a4.49,4.49,0,0,0,.91.1c.71,0,.85-.24,1.11-1.23h-4.45v-.48h4.55a5.37,5.37,0,0,0,.11-.88h-3.06l-.25.56-.57-.18a13,13,0,0,0,1.13-2.92l.52.15c.07,0,.13.07.13.1s-.1.11-.24.18l-.08.32Zm.36-.9h-5.16v1h-.54v-1.44H245v1.44h-.52Z"/><path class="cls-6" d="M248.11,178.12l.36.29s.08.07.08.1-.15.07-.24.06a7.09,7.09,0,0,1-1.83.88l-.31-.46a4.16,4.16,0,0,0,1.8-.86h-2.19v-.46h6.49v.46Zm.67-5.21.59,0s.12,0,.12.07-.05.09-.18.15v.34h2.55V174h-2.55v.42h1.88v3H247v-3h1.82V174h-2.59v-.46h2.59Zm1.9,1.91h-3.2v.42h3.2Zm0,.82h-3.2v.42h3.2Zm0,.83h-3.2v.42h3.2Zm-.78,1.66a10.15,10.15,0,0,0,1.91.82l-.27.45a8.38,8.38,0,0,1-2-.88Z"/><path class="cls-6" d="M255.13,174.53V175h-.77v1.4l.73-.46v.57a8.18,8.18,0,0,1-.73.46v1.75c0,.74-.1.77-1.05.74l-.14-.56a2.91,2.91,0,0,0,.49.06c.15,0,.21-.07.21-.25v-1.44l-.5.29c0,.12,0,.21-.1.21s-.06,0-.11-.1l-.29-.52c.3-.13.43-.19,1-.48V175H253v-.48h.86v-1.65l.53.05c.09,0,.13,0,.13.07s-.08.1-.16.13v1.39Zm1.63,4.12c-.6.25-.75.32-1.3.53,0,.1,0,.23-.15.23s-.07,0-.09-.12l-.17-.51a2.4,2.4,0,0,0,.5-.12v-2.73h-.48v-.44h4.41v.44h-2.25v3.55h-.48Zm-1-5.62H259v2.07h-3.26Zm1,2.89H256v.6h.73Zm0,1H256v.6h.73Zm0,1H256v.61c.3-.1.45-.15.73-.26Zm1.77-4.43h-2.27v.41h2.27Zm0,.82h-2.27v.41h2.27ZM257.29,179a2.69,2.69,0,0,0,.79-.61,3.25,3.25,0,0,1-.53-1.44l.42-.14a2.34,2.34,0,0,0,.41,1.19,4.07,4.07,0,0,0,.5-1.27h-1.52v-.43h1.93l.12.15a4.69,4.69,0,0,1-.74,1.92,3.09,3.09,0,0,0,.94.68l-.31.43a2.78,2.78,0,0,1-.92-.73,4.14,4.14,0,0,1-.71.65Z"/><path class="cls-6" d="M260.14,175.93v-.44h1.69v-.4h-1.31V173h3.15v2.09h-1.31v.4H264v.44Zm.05,2.91a4,4,0,0,0,.88-1l.39.32s.06.06.06.09-.06.05-.18,0a4.18,4.18,0,0,1-.81,1Zm2.15.07c0,.59-.16.6-1,.58l-.12-.49h.32c.21,0,.26-.08.26-.26v-1.08h-1.16v-1.34h2.82v1.34h-1.16ZM261,173.82h2.19v-.41H261Zm0,.84h2.19v-.46H261Zm2,2.08h-1.82v.53H263Zm-.13,1.14a3.33,3.33,0,0,1,.88.8l-.32.38a3.7,3.7,0,0,0-.88-.89Zm.74,1.15a4.94,4.94,0,0,0,2.6-2.18l.41.39s.07.07.07.11-.11.07-.24.07a6.56,6.56,0,0,1-2.43,2.1Zm.28-4.54a4.38,4.38,0,0,0,1.86-1.73l.49.41s.07.06.07.1-.06.05-.09.05h-.15a6.22,6.22,0,0,1-1.72,1.57Zm.27,2.07a5.31,5.31,0,0,0,2-1.92l.38.34c.11.1.12.11.12.15s-.07.07-.19.07a7.33,7.33,0,0,1-1.86,1.76Z"/><path class="cls-6" d="M269.34,174.11a3,3,0,0,0,1,.73l-.35.36a2.93,2.93,0,0,1-.75-.65v1.55h-.46v-1.61a7.59,7.59,0,0,1-1.21,1.22l-.35-.38a4.34,4.34,0,0,0,1.29-1.22h-1.1v-.44h1.36v-.83l.51,0c.05,0,.12,0,.12.07s-.11.13-.18.16v.57h1.12v.44Zm1.55,3.65v1.16c0,.45,0,.57-1.11.57l-.19-.53.49,0c.28,0,.28-.1.28-.27v-1h-3v-.44h6.57v.44Zm-1.3.71a.41.41,0,0,1-.15,0,7,7,0,0,1-1.5.77l-.37-.43a5.72,5.72,0,0,0,1.77-.82l.28.35a.19.19,0,0,1,.05.11c0,.05,0,.07-.08.07m-1.52-2.1H273v.46h-4.89Zm5.56-.63a6.15,6.15,0,0,1-1.36-1.23v1.6h-.48v-1.6a6.92,6.92,0,0,1-1.27,1.3l-.38-.32a6.83,6.83,0,0,0,1.44-1.38h-.86v-.44h1.08v-.83l.51,0s.13,0,.13.07-.07.1-.17.15v.58h1.52v.44h-1.3a5.63,5.63,0,0,0,1.49,1.28Zm-.65,3.51a6.79,6.79,0,0,0-1.67-.91l.29-.35a7.63,7.63,0,0,1,1.75.82Z"/><path class="cls-6" d="M275.67,174.61l.55.05c.05,0,.21,0,.21.1s0,.1-.19.16v3.62h1.46v-5.66l.63.06c.07,0,.18,0,.18.08s-.07.1-.26.15v2.16h2.14v.54h-2.14v2.67h2.84v.52h-6.62v-.52h1.21Z"/></g></g></svg>